<svg width="143" height="165" viewBox="0 0 143 165" fill="none" xmlns="http://www.w3.org/2000/svg">
<path d="M71.4823 15.9743L98.782 31.7389L112.624 23.7692L71.4823 0L2.76142 39.7085L16.5336 47.6782L71.4823 15.9743Z" fill="white"/>
<path d="M126.397 31.7389L71.4827 63.4428L44.1831 47.6782L30.376 55.6479L71.4827 79.3821L140.239 39.7086L126.397 31.7389Z" fill="white"/>
<path d="M13.8071 85.08L0 77.1104V124.579L68.7209 164.287V148.348L13.8071 116.609V85.08Z" fill="white"/>
<path d="M0 61.1704L54.9138 92.8743V124.403L68.7209 132.408V84.9047L0 45.2311V61.1704Z" fill="white"/>
<path d="M115.386 77.1101V61.1707L74.2441 84.905V164.287L88.0512 156.317V92.8746L115.386 77.1101Z" fill="white"/>
<path d="M129.158 53.2007V116.609L101.858 132.408V148.347L143 124.578V45.2311L129.158 53.2007Z" fill="white"/>
</svg>
